# xmcd CD database file
#
# Track frame offsets:
#	150
#	25810
#	50343
#	82606
#	98408
#	129835
#	163148
#	180790
#	220998
#	240429
#	260295
#	287651
#	313717
#
# Disc length: 4518 seconds
#
# Revision: 0
# Processed by: cddbd v1.5.2PL0 Copyright (c) Steve Scherf et al.
# Submitted via: CDex 1.51
#
DISCID=9611a40d
DTITLE=Various Artist - Brit Jazz Breaks Out
DYEAR=2007
DGENRE=Jazz
TTITLE0=01 Empirical - Blessings
TTITLE1=02 Nikki Iles Trio - Ambleside Days
TTITLE2=03 Guy Barker - Queen Righteous
TTITLE3=04 Acousic Ladyland - The Rise
TTITLE4=05 Martin Taylor - Making The Move
TTITLE5=06 Acoustic Triangle - Ritual
TTITLE6=07 Dennis Rollins - Fire In The House
TTITLE7=08 Tommy Smith - Sputnik's Tale
TTITLE8=09 Ian Shaw - A Case Of You
TTITLE9=10 Dave O'Higgins Quartet - Operation Yardbird
TTITLE10=11 Polar Bear - Can Hear The Want To Be One
TTITLE11=12 Alan Barnes/Bruce Adams Quintet - Motoring Along
TTITLE12=13 Denys Baptiste - I Have A Dream
EXTD=YEAR: 2007
EXTT0=
EXTT1=
EXTT2=
EXTT3=
EXTT4=
EXTT5=
EXTT6=
EXTT7=
EXTT8=
EXTT9=
EXTT10=
EXTT11=
EXTT12=
PLAYORDER=
